<svg xmlns="http://www.w3.org/2000/svg"><defs><linearGradient id="a" x1="0%" y1="0%" x2="0%" y2="100%"><stop offset="0%" stop-color="rgba(240,185,10,.65)"/><stop offset="80%" stop-color="rgba(240,185,10,.05)"/><stop offset="100%" stop-color="transparent"/></linearGradient></defs><path d="M0 19l4 10L9 8l4-4 4 6 5-2 4 12 4-5 5-4 4 2 4 10 5 3 4-5 5-4 4-10 4-3h5l4-3 4 10 5-7 4 3 4 3 5 6 4 3" stroke="rgba(240, 185, 10, 1)" fill="none"/><path d="M0 28v-9l4 10L9 8l4-4 4 6 5-2 4 12 4-5 5-4 4 2 4 10 5 3 4-5 5-4 4-10 4-3h5l4-3 4 10 5-7 4 3 4 3 5 6 4 3v9" fill="url(#a)"/></svg>