<svg xmlns="http://www.w3.org/2000/svg"><defs><linearGradient id="a" x1="0%" y1="0%" x2="0%" y2="100%"><stop offset="0%" stop-color="rgba(240,185,10,.65)"/><stop offset="80%" stop-color="rgba(240,185,10,.05)"/><stop offset="100%" stop-color="transparent"/></linearGradient></defs><path d="M0 16l4 8L9 6l4-5 4 5 5-2 4 13 4-2 5-3 4 6 4 8 5 3h4l5-9 4-8 4-3 5 1 4-2 4 11 5-17 4 5 4 6 5 5 4 5" stroke="rgba(240, 185, 10, 1)" fill="none"/><path d="M0 28V16l4 8L9 6l4-5 4 5 5-2 4 13 4-2 5-3 4 6 4 8 5 3h4l5-9 4-8 4-3 5 1 4-2 4 11 5-17 4 5 4 6 5 5 4 5v5" fill="url(#a)"/></svg>