<svg xmlns="http://www.w3.org/2000/svg"><defs><linearGradient id="a" x1="0%" y1="0%" x2="0%" y2="100%"><stop offset="0%" stop-color="rgba(240,185,10,.65)"/><stop offset="80%" stop-color="rgba(240,185,10,.05)"/><stop offset="100%" stop-color="transparent"/></linearGradient></defs><path d="M0 23l4-5 5 8 4 3 4-6 5-2 4 2 4-5h5l4-9h4l5-5 4 3h5l4-6 4 8 5-5h4l4 3h5l4 2h13" stroke="rgba(240, 185, 10, 1)" fill="none"/><path d="M0 28v-5l4-5 5 8 4 3 4-6 5-2 4 2 4-5h5l4-9h4l5-5 4 3h5l4-6 4 8 5-5h4l4 3h5l4 2h13v19" fill="url(#a)"/></svg>