<svg xmlns="http://www.w3.org/2000/svg"><defs><linearGradient id="a" x1="0%" y1="0%" x2="0%" y2="100%"><stop offset="0%" stop-color="rgba(240,185,10,.65)"/><stop offset="80%" stop-color="rgba(240,185,10,.05)"/><stop offset="100%" stop-color="transparent"/></linearGradient></defs><path d="M0 13l4 7L9 4l4-3 4 5 5-1 4 11 4-4 5-2 4 2 4 10 5 7 4-3 5-2 4-10 4-5 5 2 4-2 4 7 5-9 4 3 4 4 5 5 4 2" stroke="rgba(240, 185, 10, 1)" fill="none"/><path d="M0 28V13l4 7L9 4l4-3 4 5 5-1 4 11 4-4 5-2 4 2 4 10 5 7 4-3 5-2 4-10 4-5 5 2 4-2 4 7 5-9 4 3 4 4 5 5 4 2v7" fill="url(#a)"/></svg>